<svg width="374" height="354" viewBox="0 0 374 354" fill="none" xmlns="http://www.w3.org/2000/svg">
<path d="M71.4735 322.392C79.4654 320.683 101.332 315.48 96.501 300.674C91.1975 284.414 71.9458 284.887 62.392 287.47C52.8747 290.053 36.1649 301.62 41.2512 314.534C46.7365 328.431 63.882 323.993 71.4735 322.392Z" fill="#0B0F19"/>
<path d="M57.8156 324.867C50.9867 324.867 43.9394 322.794 40.7434 314.682C39.218 310.825 39.4718 306.824 41.4695 302.786C45.3562 295.075 55.0553 288.853 62.2478 286.889C71.8737 284.307 91.5622 283.797 97.0097 300.458C98.1727 304.06 97.9176 307.37 96.2104 310.317C91.4158 318.683 76.4865 321.848 71.582 322.903L70.4923 323.122C67.2596 323.849 62.5736 324.867 57.8144 324.867H57.8156ZM72.9268 286.635C69.0035 286.635 65.3352 287.217 62.5382 287.98C56.5807 289.581 46.4105 295.401 42.4506 303.296C40.5616 307.043 40.3431 310.716 41.7599 314.281C46.845 327.16 62.1014 323.849 70.275 322.066C70.6397 322 71.003 321.928 71.3648 321.848C84.1879 319.119 92.2517 315.082 95.2659 309.807C96.7913 307.151 97.0463 304.132 95.9566 300.822C92.3603 289.727 82.0084 286.635 72.9268 286.635Z" fill="white"/>
<path d="M85.8942 320.464C88.8325 320.463 91.6503 319.294 93.728 317.214C95.8057 315.133 96.9731 312.311 96.9734 309.368C96.9667 306.428 95.7972 303.61 93.7209 301.53C91.6446 299.451 88.8305 298.28 85.8942 298.273C82.9579 298.28 80.1438 299.451 78.0675 301.53C75.9912 303.61 74.8217 306.428 74.8149 309.368C74.8153 312.311 75.9826 315.133 78.0603 317.214C80.138 319.294 82.9559 320.463 85.8942 320.464Z" fill="#0B0F19"/>
<path d="M85.8928 321.012C79.463 321.012 74.2693 315.773 74.2693 309.37C74.2693 302.967 79.4996 297.729 85.8928 297.729C92.286 297.729 97.5163 302.967 97.5163 309.37C97.5163 315.773 92.3214 321.012 85.8928 321.012ZM85.8928 298.784C83.0996 298.787 80.4217 299.899 78.4467 301.877C76.4718 303.855 75.3613 306.537 75.359 309.335C75.3616 312.132 76.4722 314.813 78.4471 316.791C80.4221 318.769 83.0999 319.881 85.8928 319.884C88.6857 319.881 91.3635 318.769 93.3384 316.791C95.3133 314.813 96.424 312.132 96.4266 309.335C96.4243 306.537 95.3138 303.855 93.3389 301.877C91.3639 299.899 88.6859 298.787 85.8928 298.784Z" fill="white"/>
<path d="M76.3414 303.698C76.3414 303.698 74.8526 295.659 76.3414 295.113C77.8302 294.567 81.9353 298.969 81.9353 298.969C81.9353 298.969 80.0096 299.66 78.8113 300.788C77.6129 301.952 76.3414 303.698 76.3414 303.698Z" fill="#0B0F19"/>
<path d="M76.3414 304.243H76.2328C76.0143 304.206 75.8691 304.025 75.8337 303.807C75.8337 303.733 75.4701 301.733 75.2529 299.66C74.8892 295.621 75.5067 294.822 76.1608 294.603C77.868 293.985 81.3191 297.513 82.3356 298.604C82.4442 298.75 82.5174 298.932 82.4808 299.114C82.4442 299.296 82.299 299.441 82.1171 299.513C82.0805 299.513 80.2647 300.168 79.175 301.223C78.3015 302.104 77.4997 303.052 76.777 304.061C76.7206 304.119 76.6528 304.165 76.5779 304.197C76.503 304.228 76.4225 304.244 76.3414 304.243ZM76.5232 295.621C76.5232 295.621 75.9777 296.058 76.3414 299.732L76.6684 302.388L78.4123 300.424C79.2116 299.66 80.2647 299.114 80.9554 298.786C79.2482 297.004 77.1407 295.367 76.5232 295.621ZM96.8647 308.204C96.7927 308.204 96.7194 308.168 96.6108 308.132C96.4656 308.058 96.357 307.913 96.3204 307.731C96.3204 307.695 95.8115 305.148 94.9768 303.948L93.3416 301.801C93.1964 301.656 93.1598 301.438 93.233 301.256C93.3062 301.074 93.4868 300.929 93.6687 300.892C94.4314 300.783 101.152 299.874 102.967 301.256C103.117 301.361 103.242 301.496 103.336 301.653C103.43 301.809 103.49 301.984 103.513 302.165C103.803 304.493 98.2094 307.513 97.1197 308.058C97.0465 308.204 96.9379 308.204 96.8659 308.204H96.8647ZM94.7938 301.911L95.8835 303.365C96.5376 304.348 97.0099 305.912 97.2271 306.821C99.5884 305.513 102.531 303.402 102.422 302.347C102.422 302.311 102.422 302.274 102.277 302.165C101.332 301.475 97.5541 301.62 94.7938 301.911Z" fill="white"/>
<path d="M46.191 297.367C46.191 297.367 36.0563 306.825 38.636 318.175C41.3964 330.253 63.7721 338.328 73.3992 326.25C81.0994 316.574 68.1323 311.19 64.2456 317.302C58.7603 325.887 35.1862 326.541 46.1922 297.367H46.191Z" fill="#2B2D49"/>
<path d="M60.0319 332.763C58.2881 332.763 56.4722 332.544 54.6198 332.145C46.3375 330.253 39.5452 324.578 38.0918 318.32C37.0021 313.555 37.9832 308.353 40.962 303.297C43.1781 299.477 45.72 297.113 45.7932 297.04C45.9751 296.858 46.2655 296.858 46.4839 297.003C46.7024 297.149 46.7744 297.404 46.7024 297.658C42.2348 309.481 43.0695 317.994 48.9905 320.976C53.6765 323.341 61.0142 321.414 63.7746 317.12C65.0462 315.156 67.2976 314.102 69.8774 314.283C72.5658 314.501 74.9271 316.066 75.8716 318.248C76.9247 320.685 76.1986 323.668 73.8373 326.651C70.6401 330.617 65.7003 332.763 60.0343 332.763H60.0319ZM44.7755 299.732C42.0518 303.043 37.3291 310.136 39.1816 318.03C40.5251 323.887 46.9916 329.234 54.8736 331.053C62.2834 332.726 69.0403 330.798 72.9636 325.888C75.6519 322.505 75.4701 320.031 74.8526 318.576C74.0533 316.757 72.0557 315.447 69.7676 315.265C67.6247 315.083 65.699 315.957 64.6825 317.593C61.5951 322.395 53.7485 324.469 48.5182 321.85C45.576 320.358 43.687 317.63 43.0329 313.883C42.3422 310.099 42.9243 305.334 44.7767 299.732H44.7755ZM67.8431 310.571C67.7314 310.569 67.6228 310.534 67.5319 310.469C67.4409 310.404 67.372 310.312 67.3343 310.207C67.3083 310.14 67.2963 310.069 67.2988 309.997C67.3014 309.926 67.3185 309.856 67.3491 309.791C67.3798 309.726 67.4232 309.669 67.4769 309.621C67.5306 309.574 67.5933 309.538 67.6613 309.516C71.9117 307.952 78.6319 309.007 78.9224 309.043C78.9929 309.052 79.0607 309.076 79.1216 309.113C79.1825 309.15 79.2351 309.198 79.276 309.257C79.317 309.315 79.3454 309.381 79.3596 309.451C79.3737 309.52 79.3731 309.592 79.358 309.662C79.3214 309.953 79.031 310.17 78.7405 310.098C78.6673 310.098 72.0203 309.043 68.025 310.498C67.953 310.571 67.9163 310.571 67.8431 310.571ZM99.226 318.724C99.0635 318.718 98.9087 318.653 98.7903 318.542C97.991 317.559 93.7053 315.085 92.1067 314.212C91.8528 314.066 91.743 313.74 91.8882 313.485C92.0334 313.229 92.3605 313.122 92.6143 313.267C93.2318 313.593 98.5353 316.541 99.625 317.85C99.8069 318.069 99.7702 318.432 99.5518 318.614C99.4798 318.687 99.37 318.724 99.2248 318.724H99.226ZM68.7132 313.957C68.4948 313.957 68.3129 313.849 68.2043 313.63C68.0591 313.376 68.2043 313.048 68.4582 312.903C72.6353 310.902 78.5563 311.011 78.8101 311.011C78.9533 311.015 79.0894 311.074 79.1906 311.176C79.2918 311.277 79.3504 311.414 79.3544 311.557C79.3544 311.848 79.1005 312.066 78.8101 312.102C78.7369 312.102 72.8525 311.994 68.9304 313.885C68.8572 313.921 68.7852 313.957 68.712 313.957H68.7132ZM97.8092 324.356C97.5908 324.356 97.3735 324.211 97.3003 323.957C96.3558 320.755 90.9437 316.389 90.8705 316.317C90.652 316.135 90.6167 315.771 90.7985 315.554C90.9803 315.336 91.344 315.298 91.5612 315.48C91.7784 315.662 97.3003 320.136 98.3535 323.629C98.3909 323.769 98.3742 323.918 98.3068 324.046C98.2393 324.174 98.1261 324.272 97.9898 324.32C97.9178 324.356 97.8446 324.356 97.808 324.356H97.8092Z" fill="white"/>
<path d="M99.6141 194.857C99.4707 194.853 99.3342 194.794 99.2328 194.692C99.1314 194.591 99.0726 194.454 99.0686 194.311C99.0729 194.167 99.1318 194.031 99.2332 193.93C99.3346 193.828 99.4709 193.769 99.6141 193.766L286.067 191.946C286.211 191.95 286.347 192.009 286.449 192.11C286.55 192.212 286.609 192.348 286.613 192.492C286.609 192.636 286.55 192.772 286.449 192.874C286.347 192.976 286.211 193.034 286.067 193.038L99.6141 194.857Z" fill="white" fill-opacity="0.55"/>
<path d="M231.8 295.04L274.19 294.531L270.775 307.336L231.836 307.445V295.04H231.8Z" fill="#0B0F19"/>
<path d="M231.799 307.993C231.653 307.993 231.508 307.919 231.4 307.847C231.29 307.737 231.254 307.592 231.254 307.446V295.042C231.258 294.899 231.317 294.762 231.418 294.661C231.519 294.559 231.655 294.5 231.799 294.496L274.19 293.987C274.371 293.987 274.517 294.059 274.626 294.205C274.734 294.35 274.771 294.532 274.734 294.678L271.32 307.483C271.248 307.737 271.029 307.883 270.811 307.883L231.799 307.993ZM232.344 295.587V306.901L270.339 306.791L273.463 295.079L232.344 295.587Z" fill="white"/>
<path d="M131.106 137.925C131.106 137.925 118.137 156.113 121.081 170.81C124.024 185.507 140.877 195.219 166.922 194.31C164.706 216.355 168.702 295.659 168.702 295.659L231.834 295.04L268.485 294.531V187.871L217.34 148.365C217.34 148.365 192.93 138.58 131.106 137.925Z" fill="#202034"/>
<path d="M168.666 296.205C168.375 296.205 168.121 295.986 168.121 295.695C168.085 294.895 164.235 217.52 166.304 194.893C153.918 195.257 143.129 193.183 135.066 188.927C127.075 184.671 122.025 178.451 120.536 170.957C118.974 163.244 121.845 154.587 124.495 148.694C127.365 142.327 130.635 137.707 130.67 137.671C130.78 137.525 130.962 137.453 131.107 137.453C191.442 138.072 216.469 147.493 217.522 147.894C217.559 147.929 217.632 147.929 217.667 147.966L268.813 187.472C268.959 187.581 269.031 187.727 269.031 187.909V294.567C269.027 294.711 268.968 294.847 268.867 294.949C268.766 295.05 268.629 295.109 268.486 295.114L231.834 295.623L168.666 296.205ZM166.886 193.765C167.032 193.765 167.177 193.838 167.286 193.947C167.394 194.056 167.431 194.201 167.431 194.383C165.36 215.192 168.848 288.201 169.175 295.114L231.762 294.495L267.904 293.986V188.126L217.05 148.839C215.379 148.221 190.497 139.126 131.397 138.471C129.907 140.617 118.938 157.278 121.626 170.666C123.042 177.868 127.873 183.798 135.611 187.909C143.602 192.201 154.427 194.201 166.886 193.765Z" fill="white"/>
<path d="M231.799 295.582C231.507 295.582 231.253 295.364 231.253 295.036L228.675 187.213L196.2 157.638C195.983 157.42 195.946 157.092 196.164 156.875C196.383 156.657 196.709 156.619 196.927 156.838L229.546 186.595C229.655 186.704 229.728 186.849 229.728 186.994L232.306 295.073C232.343 295.327 232.125 295.582 231.799 295.582Z" fill="white"/>
<path d="M163.618 295.697L240.371 295.042L237.429 307.41L167.541 307.665L163.618 295.697Z" fill="#0B0F19"/>
<path d="M167.505 308.208C167.393 308.207 167.285 308.171 167.194 308.106C167.103 308.041 167.034 307.95 166.996 307.844L163.074 295.876C163.038 295.694 163.038 295.513 163.146 295.403C163.255 295.293 163.401 295.186 163.582 295.186L240.336 294.531C240.518 294.531 240.663 294.603 240.772 294.748C240.88 294.894 240.917 295.04 240.882 295.221L237.939 307.59C237.866 307.844 237.648 308.026 237.394 308.026L167.505 308.208ZM164.346 296.24L167.905 307.117L236.995 306.863L239.682 295.585L164.346 296.24Z" fill="white"/>
<path d="M264.782 307.444V315.92L287.122 331.781L231.8 332.254V307.444H264.782Z" fill="#0B0F19"/>
<path d="M231.799 332.801C231.653 332.801 231.508 332.728 231.4 332.656C231.29 332.546 231.254 332.4 231.254 332.255V307.445C231.259 307.302 231.317 307.166 231.419 307.064C231.52 306.963 231.656 306.904 231.799 306.9H264.781C264.925 306.904 265.061 306.963 265.162 307.064C265.264 307.165 265.323 307.302 265.327 307.445V315.667L287.412 331.346C287.593 331.491 287.703 331.746 287.629 331.964C287.556 332.181 287.339 332.328 287.122 332.365L231.799 332.801ZM232.344 307.991V331.71L285.413 331.237L264.454 316.358C264.309 316.249 264.237 316.104 264.237 315.921V307.955H232.344V307.991Z" fill="white"/>
<path d="M169.104 307.66L231.8 307.406V316.718L253.994 331.96L169.648 333.016L169.104 307.66Z" fill="#0B0F19"/>
<path d="M169.648 333.562C169.505 333.558 169.368 333.5 169.267 333.398C169.166 333.297 169.107 333.161 169.102 333.017L168.558 307.698C168.558 307.552 168.593 307.407 168.703 307.298C168.813 307.189 168.957 307.116 169.102 307.116L231.799 306.862C231.944 306.862 232.089 306.934 232.199 307.007C232.307 307.116 232.344 307.261 232.344 307.407V316.428L254.284 331.49C254.465 331.635 254.574 331.853 254.501 332.108C254.429 332.325 254.211 332.508 253.992 332.508L169.648 333.562ZM169.648 308.207L170.192 332.435L252.25 331.453L231.471 317.192C231.326 317.083 231.218 316.938 231.218 316.756V307.99L169.648 308.207Z" fill="white"/>
<path d="M180.506 125.116L182.105 106.928L180.833 87.83L182.105 106.928L196.053 96.4873C196.053 96.4873 177.891 71.1324 169.827 69.859C165.25 73.1697 161.582 67.8218 161.582 67.8218C161.582 67.8218 136.918 68.6223 130.306 92.122C144.618 96.7061 154.971 99.5071 154.971 99.5071L157.913 88.2296L151.484 119.26L180.506 125.116Z" fill="#0B0F19"/>
<path d="M180.508 125.661H180.398L151.412 119.767C151.265 119.73 151.156 119.658 151.048 119.548C150.939 119.438 150.939 119.294 150.975 119.148L154.935 100.05H154.861C154.753 100.013 144.291 97.2121 130.161 92.6647C129.871 92.5926 129.725 92.265 129.797 92.0096C133.248 79.6774 141.712 73.6024 148.214 70.6926C155.225 67.564 161.328 67.3098 161.582 67.3098C161.672 67.3073 161.761 67.3258 161.843 67.3638C161.925 67.4017 161.997 67.4581 162.054 67.5285C162.054 67.5652 163.725 69.93 166.086 70.3296C167.249 70.5117 168.411 70.2208 169.537 69.4204C169.645 69.347 169.791 69.3116 169.936 69.3116C178.146 70.6217 195.763 95.104 196.527 96.1586C196.707 96.4128 196.635 96.7404 196.417 96.9225L182.687 107.217L181.088 125.188C181.088 125.334 180.98 125.479 180.87 125.588C180.725 125.625 180.616 125.661 180.508 125.661ZM152.138 118.786L179.999 124.46L181.561 106.927L180.289 87.8643V87.8276C180.289 87.5367 180.508 87.318 180.798 87.2813C181.088 87.2447 181.342 87.5001 181.379 87.7909L182.577 105.871L195.292 96.3395C192.894 93.0289 177.238 71.9305 169.973 70.4029C168.666 71.2755 167.285 71.603 165.904 71.3855C163.579 70.9846 161.872 69.0574 161.328 68.3657C160.056 68.4378 154.608 68.9474 148.615 71.6397C139.678 75.6775 133.757 82.4076 130.997 91.72C143.056 95.5757 152.355 98.1592 154.608 98.7776L157.405 88.0097C157.478 87.7188 157.768 87.5367 158.059 87.6101C158.349 87.6834 158.531 87.9743 158.458 88.2651L152.138 118.786Z" fill="white"/>
<path d="M130.309 92.0879C130.309 92.0879 121.554 131.886 123.261 134.832C124.969 137.779 172.663 147.455 185.123 147.891C197.582 148.328 193.913 129.812 190.099 127.666C186.321 125.52 151.486 119.226 151.486 119.226L154.972 99.473L130.309 92.0879Z" fill="#0B0F19"/>
<path d="M185.559 148.437H185.086C178.366 148.183 162.637 145.455 150.033 142.835C142.259 141.236 124.024 137.233 122.789 135.124C122.462 134.578 121.627 133.123 125.586 112.278L129.764 92.0155C129.8 91.87 129.873 91.7246 130.018 91.6513C130.163 91.578 130.309 91.5425 130.454 91.6146L155.154 98.9998C155.409 99.0719 155.591 99.3273 155.518 99.6182L152.14 118.826C156.716 119.663 186.793 125.193 190.39 127.229C193.113 128.758 195.293 136.797 193.768 142.29C192.933 145.091 190.862 148.437 185.559 148.437ZM130.708 92.7805C127.33 108.131 122.572 132.54 123.734 134.542C124.351 135.487 132.96 138.142 150.36 141.781C162.892 144.364 178.511 147.092 185.123 147.346C189.082 147.491 191.625 145.673 192.678 141.963C193.369 139.561 193.332 136.469 192.569 133.451C191.915 130.831 190.825 128.721 189.809 128.139C186.865 126.465 163.365 121.919 151.377 119.772C151.086 119.735 150.869 119.444 150.941 119.153L154.355 99.909L130.708 92.7793V92.7805Z" fill="white"/>
<path d="M182.65 106.639L193.693 98.2363L202.266 112.788L193.73 127.849L180.544 124.975L182.65 106.641V106.639Z" fill="#0B0F19"/>
<path d="M193.729 128.39H193.62L180.434 125.517C180.144 125.444 179.962 125.19 179.998 124.935L182.142 106.6C182.142 106.455 182.25 106.309 182.359 106.236L193.401 97.833C193.511 97.7242 193.692 97.6876 193.838 97.7242C193.985 97.7609 194.129 97.833 194.201 97.9784L202.774 112.53C202.882 112.712 202.882 112.894 202.774 113.076L194.201 128.136C194.092 128.282 193.91 128.39 193.729 128.39ZM181.124 124.571L193.438 127.227L201.647 112.785L193.547 99.0343L183.158 106.928L181.124 124.571Z" fill="white"/>
<path d="M183.124 69.9335C191.152 67.2413 187.955 51.9993 183.669 45.8875C176.078 35.0475 157.37 36.9027 152.502 51.563C151.449 54.7636 144.911 56.1825 147.454 61.2762C149.233 64.8411 156.353 62.9859 156.353 62.9859C156.353 62.9859 178.329 71.5345 183.124 69.9335Z" fill="#0B0F19"/>
<path d="M181.562 70.6611C174.878 70.6611 158.278 64.3318 156.316 63.5668C155.154 63.8576 148.761 65.1677 146.981 61.5295C145.165 57.8559 147.598 55.8187 149.561 54.1444C150.65 53.2352 151.667 52.3614 151.994 51.38C154.282 44.4324 159.912 39.6295 167.032 38.5749C173.862 37.5569 180.4 40.2479 184.105 45.5225C187.446 50.252 189.808 59.6011 187.919 65.384C187.084 67.9309 185.522 69.6406 183.269 70.3678C182.834 70.5865 182.253 70.6586 181.562 70.6586V70.6611ZM156.353 62.4754C156.426 62.4754 156.498 62.4755 156.535 62.5121C162.02 64.6215 176.041 69.6052 181.49 69.6052C182.071 69.6052 182.579 69.5331 182.942 69.4231C184.831 68.768 186.175 67.3492 186.902 65.1311C188.646 59.7832 186.393 50.725 183.233 46.2142C179.746 41.2671 173.607 38.757 167.214 39.7029C160.493 40.6854 155.226 45.1962 153.047 51.7442C152.611 53.0543 151.45 54.0356 150.287 55.0182C148.289 56.7279 146.545 58.1834 147.962 61.0566C148.761 62.6575 150.904 62.9851 152.575 62.9484C154.5 62.9484 156.208 62.4754 156.208 62.4754H156.353Z" fill="white"/>
<path d="M161.584 67.8259L163.509 62.3326C163.509 62.3326 161.511 59.5682 161.584 58.0039C161.657 56.4396 158.569 57.531 159.368 54.3303C160.204 51.1296 164.236 54.6945 166.234 55.5304C168.231 56.3663 171.973 54.4024 173.934 54.257C175.279 54.1482 176.622 55.4571 176.986 56.2942C177.748 58.0406 176.695 60.5141 174.661 61.6775C172.627 62.8776 169.611 63.0597 169.611 63.0597L169.321 70.1895C169.321 70.1895 168.885 71.6816 164.962 70.5903C161.039 69.4623 161.584 67.8259 161.584 67.8259Z" fill="white"/>
<path d="M167.433 71.5001C166.779 71.5001 165.908 71.3913 164.818 71.1004C162.929 70.5908 161.729 69.827 161.222 68.9178C160.858 68.2627 161.003 67.7531 161.04 67.6443L162.856 62.4064C162.348 61.6426 160.895 59.4599 161.003 57.9678C161.003 57.7857 160.967 57.7136 160.349 57.4582C159.551 57.1306 158.206 56.5856 158.824 54.1842C159.042 53.3837 159.441 52.8386 160.022 52.6199C161.33 52.0736 163.146 53.1661 164.745 54.1108L166.415 55.0201C167.542 55.4564 169.431 54.8746 171.101 54.365C172.119 54.0375 173.099 53.7466 173.863 53.71C175.46 53.6012 176.986 55.0201 177.458 56.0747C178.331 58.0386 177.168 60.8397 174.916 62.1498C173.281 63.0957 171.101 63.4599 170.122 63.5686L169.83 70.1888C169.83 70.2254 169.83 70.2621 169.795 70.2975C169.83 70.443 169.467 71.4976 167.433 71.4976V71.5001ZM162.093 67.9719C162.093 68.0806 161.984 69.172 165.108 70.0458C167.65 70.7375 168.595 70.3 168.777 70.0091L169.067 63.0248C169.067 62.734 169.286 62.5152 169.576 62.5152C169.613 62.5152 172.482 62.3331 174.371 61.2051C176.151 60.1504 177.132 57.9678 176.478 56.5122C176.151 55.7851 174.988 54.7292 173.972 54.8025C173.318 54.8392 172.41 55.1301 171.465 55.4209C169.613 56.0026 167.505 56.6577 166.016 56.0393C165.508 55.8205 164.853 55.4576 164.201 55.0567C162.966 54.3296 161.258 53.3103 160.422 53.6379C160.314 53.6745 160.022 53.7833 159.842 54.475C159.478 55.9305 159.987 56.1481 160.75 56.4756C161.294 56.6943 162.13 57.0573 162.056 58.0399C161.983 59.0224 163.146 60.9864 163.874 62.0056C163.982 62.151 164.019 62.3331 163.946 62.5152L162.093 67.9719Z" fill="#0B0F19"/>
<path d="M372.666 149.276H7.49348C7.35029 149.272 7.21416 149.213 7.11297 149.112C7.01179 149.01 6.9532 148.874 6.94922 148.73C6.95351 148.587 7.01223 148.451 7.11338 148.349C7.21453 148.248 7.35049 148.189 7.49348 148.185H372.666C372.809 148.189 372.945 148.248 373.046 148.349C373.147 148.451 373.206 148.587 373.21 148.73C373.21 149.022 372.991 149.276 372.666 149.276Z" fill="white"/>
<path d="M99.0685 148.562L47.947 345.239L49.0014 345.514L100.123 148.837L99.0685 148.562Z" fill="white" fill-opacity="0.55"/>
<path d="M54.4779 148.537L53.4419 148.876L120.529 353.819L121.565 353.479L54.4779 148.537ZM282.697 148.546L281.663 148.891L349.844 353.82L350.878 353.475L282.697 148.546Z" fill="white" fill-opacity="0.55"/>
<path d="M328.407 148.542L277.292 342.489L278.346 342.768L329.46 148.821L328.407 148.542Z" fill="white" fill-opacity="0.55"/>
<path d="M28.0521 124.899C27.8337 124.899 27.6165 124.754 27.5433 124.572C27.47 124.39 20.6778 107.511 11.3423 103.255C11.0519 103.146 10.9433 102.818 11.0885 102.527C11.1971 102.237 11.5242 102.128 11.8146 102.273C15.9198 104.165 19.9871 108.422 23.9104 114.933C26.816 119.771 28.5598 124.1 28.5964 124.173C28.6472 124.304 28.6453 124.449 28.591 124.577C28.5368 124.706 28.4345 124.809 28.306 124.864C28.1973 124.9 28.1241 124.9 28.0521 124.9V124.899Z" fill="white"/>
<path d="M11.5645 102.743C11.5645 102.743 4.19016 91.0295 1.28459 94.4135C-2.74733 99.0697 11.5645 102.743 11.5645 102.743Z" fill="#565973"/>
<path d="M11.5646 103.291H11.4194C10.4029 103 1.28467 100.562 0.122932 96.8882C-0.167503 95.9056 0.0497131 94.9597 0.84902 94.0872C1.35789 93.5054 2.01198 93.2146 2.77468 93.2867C4.33668 93.3955 6.37095 94.9964 8.84087 98.0517C10.6213 100.271 11.9649 102.38 12.0369 102.49C12.0935 102.585 12.1203 102.695 12.1138 102.805C12.1073 102.915 12.0677 103.021 12.0003 103.109C11.8917 103.217 11.7464 103.291 11.5646 103.291ZM2.55624 94.3414C2.19259 94.3414 1.90215 94.4868 1.64833 94.7777C1.13945 95.396 0.957628 95.9778 1.13945 96.5607C1.83015 98.8155 7.09704 100.853 10.2564 101.835C8.36738 99.0709 4.80772 94.5235 2.62824 94.378C2.62824 94.3414 2.59163 94.3414 2.55502 94.3414H2.55624Z" fill="white"/>
<path d="M21.0783 111.618C18.4632 105.943 10.835 116.747 10.835 116.747C10.835 116.747 22.5317 114.71 21.0783 111.618Z" fill="#565973"/>
<path d="M11.3667 117.295C11.2741 117.291 11.1836 117.265 11.1019 117.221C11.0202 117.177 10.9493 117.116 10.8945 117.041C10.8408 116.947 10.8125 116.84 10.8125 116.732C10.8125 116.623 10.8408 116.517 10.8945 116.422C11.44 115.659 16.1614 109.111 19.6856 109.438C20.7388 109.547 21.5381 110.202 22.0836 111.402C22.3374 111.912 22.302 112.493 22.0469 113.003C20.6668 115.622 12.3845 117.15 11.44 117.295H11.3667ZM19.4306 110.493C17.3963 110.493 14.3455 113.767 12.6383 115.913C15.9808 115.221 20.3397 113.876 21.0658 112.457C21.1744 112.238 21.1744 112.057 21.1024 111.838C20.7022 111.001 20.2311 110.565 19.577 110.528C19.5404 110.492 19.5038 110.492 19.4318 110.492L19.4306 110.493Z" fill="white"/>
<path d="M33.3582 81.2847C34.7383 98.6372 38.5884 124.646 38.5884 124.646L33.3582 81.2847Z" fill="#0B0F19"/>
<path d="M38.5508 125.23C38.2969 125.23 38.0419 125.048 38.0053 124.757C37.9687 124.503 34.1552 98.5294 32.775 81.359C32.7384 81.0681 32.9934 80.8127 33.2839 80.7772C33.5743 80.7418 33.8293 80.996 33.8647 81.2869C35.2083 98.4207 39.0596 124.359 39.095 124.613C39.1063 124.685 39.103 124.758 39.0851 124.829C39.0673 124.899 39.0353 124.965 38.9911 125.023C38.947 125.081 38.8916 125.129 38.8282 125.165C38.7649 125.201 38.695 125.223 38.6227 125.231H38.5508V125.23Z" fill="white"/>
<path d="M32.4856 64.8397C34.6651 64.621 41.167 83.9741 33.1397 83.0649C26.0204 82.2278 32.4856 64.8397 32.4856 64.8397Z" fill="#565973"/>
<path d="M33.6841 83.6115C33.5023 83.6115 33.2838 83.6115 33.1032 83.5748C31.8317 83.4294 30.8517 82.811 30.233 81.7563C27.3995 77.1368 31.8317 65.1321 32.0135 64.6225C32.0855 64.4404 32.2673 64.295 32.4858 64.2583C33.0666 64.185 33.6487 64.658 34.3016 65.7493C36.2272 68.8779 39.0962 78.2269 36.7349 81.9739C36.0088 83.0652 34.9911 83.6115 33.6841 83.6115ZM32.8128 65.6051C32.4491 66.6598 31.6864 68.9879 31.1056 71.6435C30.0891 76.2276 30.0891 79.537 31.1422 81.2113C31.6144 81.9751 32.3051 82.4114 33.2131 82.5214C34.9569 82.7401 35.9734 81.8663 36.3737 79.9024C37.2816 75.2096 34.1942 67.0252 32.814 65.6063L32.8128 65.6051ZM34.3028 91.7959C34.2101 91.7914 34.1196 91.7663 34.0379 91.7223C33.9562 91.6783 33.8854 91.6166 33.8305 91.5417C33.7939 91.4696 30.1257 85.3933 24.2413 84.9204C18.4655 84.4841 17.3392 84.847 17.3038 84.8837C17.05 85.0291 16.7229 84.9204 16.5777 84.6295C16.4325 84.3753 16.5777 84.0111 16.8315 83.9023C17.0134 83.7936 18.2483 83.3573 24.3145 83.8302C30.7444 84.3399 34.5945 90.7058 34.7397 90.96C34.8849 91.2142 34.8117 91.5417 34.5578 91.7238C34.4858 91.7971 34.376 91.7971 34.304 91.7971L34.3028 91.7959Z" fill="white"/>
<path d="M16.8302 83.724C15.7038 76.3755 4.8064 85.1795 4.8064 85.1795C4.8064 85.1795 17.5929 88.7444 16.8302 83.724Z" fill="#565973"/>
<path d="M12.652 86.96C11.6057 86.9558 10.5612 86.8708 9.52798 86.7058C6.94945 86.3416 4.73336 85.7233 4.62475 85.7233C4.44292 85.6866 4.26109 85.5045 4.2257 85.3236C4.20773 85.2246 4.21497 85.1227 4.24675 85.0272C4.27853 84.9317 4.33383 84.8458 4.40753 84.7774C4.69797 84.5586 11.5269 79.1019 15.1963 80.5208C16.3593 80.9937 17.0854 82.0484 17.3392 83.6494C17.4844 84.5953 17.2306 85.3957 16.5765 85.9408C15.8504 86.5958 14.5056 86.96 12.6532 86.96H12.652ZM6.00493 84.9594C8.94711 85.6512 14.2872 86.5604 15.8846 85.1415C16.2483 84.814 16.3569 84.4144 16.2836 83.8315C16.1018 82.5947 15.6296 81.8675 14.8302 81.54C12.6142 80.6674 8.2918 83.2864 6.0037 84.9594H6.00493ZM35.2461 100.237C35.1576 100.23 35.0713 100.205 34.9923 100.165C34.7385 100.019 34.6287 99.6918 34.7385 99.4377C34.8483 99.1835 37.9345 93.1438 45.5627 88.9239C51.3018 85.7587 54.5344 84.7774 54.6443 84.7407C54.784 84.7029 54.9329 84.7194 55.061 84.787C55.1891 84.8545 55.287 84.9681 55.335 85.1049C55.3727 85.2449 55.3562 85.3939 55.2888 85.5222C55.2213 85.6505 55.1079 85.7485 54.9713 85.7966C54.9347 85.7966 51.7021 86.7792 46.1082 89.8711C38.7704 93.9455 35.7562 99.8752 35.7196 99.9106C35.684 100.007 35.6196 100.09 35.5351 100.149C35.4506 100.208 35.3501 100.239 35.2474 100.238L35.2461 100.237Z" fill="white"/>
<path d="M55.1872 85.2882C52.7893 76.5209 73.0221 82.0142 73.0221 82.0142C73.0221 82.0142 56.8944 91.5453 55.1872 85.2882Z" fill="#565973"/>
<path d="M58.6028 87.9403C57.8401 87.9403 57.1494 87.8315 56.5685 87.6128C55.5874 87.2132 54.9333 86.4848 54.6429 85.4301C54.2072 83.7571 54.4611 82.4103 55.4056 81.4644C57.0042 79.8635 60.4906 79.3905 65.7941 80.0456C69.6442 80.5185 73.0953 81.4644 73.1319 81.4644C73.3503 81.5365 73.4955 81.6819 73.5321 81.9007C73.5688 82.1194 73.4589 82.337 73.2783 82.447C72.8793 82.7012 63.9795 87.9403 58.6028 87.9403ZM61.6182 80.8472C59.2569 80.8472 57.2226 81.2114 56.2061 82.2294C55.5154 82.9212 55.3702 83.8671 55.6972 85.1393C55.8791 85.831 56.3147 86.3027 56.9688 86.5948C58.676 87.2865 61.9086 86.6314 66.3408 84.7396C68.4471 83.8304 70.3727 82.8478 71.5357 82.1928C68.9926 81.5744 64.9973 80.8472 61.6194 80.8472H61.6182ZM49.8483 125.228C49.5578 125.228 49.3028 125.01 49.3028 124.683C49.3028 124.21 48.9757 113.151 53.1895 109.84C53.4433 109.658 53.7704 109.695 53.9522 109.949C54.134 110.203 54.0974 110.531 53.8436 110.713C50.0655 113.696 50.3925 124.573 50.3925 124.681C50.3925 124.972 50.1741 125.227 49.847 125.227L49.8483 125.228Z" fill="white"/>
<path d="M67.5733 99.9839C67.5733 99.9839 48.1398 103.913 53.1883 110.279C56.5661 114.572 67.5733 99.9839 67.5733 99.9839Z" fill="#565973"/>
<path d="M54.8249 111.625C53.9889 111.625 53.2629 111.298 52.754 110.606C51.8095 109.441 51.591 108.241 52.0279 107.041C53.7717 102.24 66.9206 99.5474 67.4661 99.4386C67.5772 99.4174 67.6922 99.4304 67.7958 99.4757C67.8995 99.5211 67.987 99.5968 68.047 99.6928C68.1036 99.7876 68.1304 99.8974 68.1239 100.008C68.1174 100.118 68.0778 100.224 68.0104 100.311C67.6833 100.784 59.4743 111.552 54.8249 111.624V111.625ZM66.2311 100.857C61.9454 101.875 54.2074 104.35 53.0456 107.442C52.7552 108.243 52.937 109.08 53.6265 109.952C53.9536 110.352 54.3526 110.534 54.8615 110.534C57.8769 110.497 63.3976 104.35 66.2311 100.857Z" fill="white"/>
<path d="M45.0159 105.112C49.5566 102.966 50.5012 116.207 50.5012 116.207C50.5012 116.207 40.5849 107.222 45.0159 105.112Z" fill="#565973"/>
<path d="M50.538 116.79C50.4704 116.794 50.4029 116.783 50.34 116.758C50.2772 116.733 50.2207 116.694 50.1743 116.645C50.1023 116.571 48.3585 114.972 46.6512 112.97C44.2533 110.169 43.1636 107.986 43.4186 106.459C43.5272 105.658 44.0361 105.003 44.8354 104.64C45.6713 104.24 46.506 104.276 47.2333 104.712C48.5769 105.513 49.6313 107.695 50.394 111.26C50.9394 113.807 51.0847 116.135 51.12 116.244C51.12 116.463 51.0114 116.68 50.8296 116.79C50.6844 116.753 50.6112 116.79 50.5392 116.79H50.538ZM45.2711 105.623C44.7988 105.841 44.545 106.169 44.4718 106.605C44.1813 108.679 47.6324 112.607 49.8473 114.826C49.4836 111.771 48.5037 106.714 46.6512 105.623C46.2156 105.368 45.7799 105.368 45.2711 105.623Z" fill="white"/>
<path d="M55.9903 124.354H23.1162V148.69H55.9903V124.354Z" fill="#3E4265" fill-opacity="0.57"/>
<path d="M55.9889 149.236H23.1148C22.9714 149.232 22.835 149.173 22.7335 149.071C22.6321 148.97 22.5733 148.833 22.5693 148.69V124.317C22.5733 124.174 22.6321 124.037 22.7335 123.935C22.835 123.834 22.9714 123.775 23.1148 123.771H55.9889C56.1323 123.775 56.2687 123.834 56.3702 123.935C56.4716 124.037 56.5304 124.174 56.5344 124.317V148.69C56.5344 149.017 56.2806 149.236 55.9889 149.236ZM23.6603 148.145H55.4446V124.862H23.6603V148.145Z" fill="white"/>
<path d="M180.509 148.729L214.181 80.3389H304.847L275.025 148.729H180.509Z" fill="url(#paint0_linear_20005153_6357)"/>
<path d="M275.06 149.276H180.507C180.326 149.276 180.144 149.167 180.035 149.022C179.927 148.877 179.927 148.658 179.999 148.476L213.672 80.0858C213.781 79.9037 213.962 79.7949 214.144 79.7949H304.847C305.027 79.7949 305.209 79.9037 305.319 80.0491C305.369 80.1236 305.398 80.2098 305.404 80.2992C305.411 80.3886 305.393 80.4781 305.354 80.5587L275.532 148.949C275.46 149.167 275.278 149.276 275.06 149.276ZM181.379 148.185H274.696L304.047 80.8863H214.543L181.379 148.185Z" fill="#0B0F19"/>
<path d="M251.05 111.256C251.05 111.256 247.563 110.31 245.093 112.057C244.003 112.821 240.624 115.439 242.404 117.659C244.185 119.878 247.489 117.95 248.761 116.021C250.032 114.057 251.05 111.256 251.05 111.256Z" fill="white"/>
<path d="M244.439 119.154C243.458 119.154 242.623 118.754 241.969 117.954C241.726 117.665 241.549 117.327 241.449 116.963C241.348 116.599 241.328 116.217 241.388 115.844C241.642 114.026 243.639 112.352 244.766 111.551C247.417 109.696 251.014 110.642 251.196 110.679C251.341 110.715 251.449 110.824 251.523 110.97C251.588 111.106 251.6 111.261 251.558 111.406C251.523 111.515 250.505 114.316 249.198 116.281C248.289 117.663 246.401 119.082 244.584 119.155H244.439V119.154ZM248.834 111.551C247.781 111.551 246.473 111.733 245.383 112.497C244.729 112.933 242.659 114.534 242.441 116.062C242.368 116.535 242.514 116.935 242.805 117.335C243.003 117.596 243.263 117.802 243.561 117.935C243.859 118.069 244.186 118.125 244.512 118.099C245.964 118.026 247.526 116.826 248.253 115.698C249.125 114.352 249.887 112.569 250.251 111.66C249.924 111.588 249.415 111.551 248.834 111.551Z" fill="#0B0F19"/>
<path d="M345.713 142.325H345.639C345.349 142.289 345.131 141.999 345.167 141.706L357.082 49.4173L303.14 19.9879C302.886 19.8425 302.777 19.5149 302.922 19.2607C303.068 19.0066 303.395 18.8966 303.648 19.042L357.954 48.6534C358.135 48.7622 358.244 48.981 358.244 49.1997L346.257 141.854C346.22 142.145 345.967 142.326 345.713 142.326V142.325Z" fill="white" fill-opacity="0.55"/>
<path d="M303.395 19.5171L277.132 30.6492L303.902 47.3101L303.395 19.5171Z" fill="#3E4265" fill-opacity="0.55"/>
<path d="M303.902 47.8542C303.794 47.8542 303.722 47.8175 303.612 47.7821L276.84 31.1212C276.66 31.0124 276.587 30.8303 276.587 30.6116C276.587 30.3928 276.732 30.2474 276.914 30.1386L303.176 19.0077C303.358 18.9344 303.54 18.9711 303.685 19.0444C303.83 19.1532 303.939 19.2986 303.939 19.4807L304.448 47.2737C304.448 47.4558 304.339 47.6733 304.157 47.7466C304.125 47.7822 304.086 47.8104 304.042 47.8292C303.998 47.848 303.95 47.8569 303.902 47.8554V47.8542ZM278.331 30.757L303.358 46.3265L302.886 20.3533L278.331 30.757Z" fill="white"/>
<path d="M290.175 47.0134C294.025 47.0134 297.112 43.8849 297.112 40.0658C297.112 36.2101 293.988 33.1182 290.175 33.1182C286.323 33.1182 283.236 36.2467 283.236 40.0658C283.236 43.8849 286.323 47.0134 290.175 47.0134Z" fill="#0B0F19"/>
<path d="M290.174 47.5596C286.032 47.5596 282.691 44.2123 282.691 40.0657C282.691 35.9191 286.032 32.5718 290.174 32.5718C294.315 32.5718 297.657 35.9191 297.657 40.0657C297.657 44.1768 294.314 47.5596 290.174 47.5596ZM290.174 33.6264C288.479 33.63 286.855 34.3057 285.657 35.5056C284.459 36.7056 283.784 38.332 283.78 40.029C283.784 41.726 284.459 43.3525 285.657 44.5524C286.855 45.7524 288.479 46.428 290.174 46.4316C291.868 46.428 293.492 45.7524 294.69 44.5524C295.889 43.3525 296.563 41.726 296.567 40.029C296.563 38.332 295.889 36.7056 294.69 35.5056C293.492 34.3057 291.868 33.63 290.174 33.6264Z" fill="white"/>
<path d="M363.076 140.833H327.841V148.326H363.112V140.833H363.076Z" fill="#3E4265" fill-opacity="0.57"/>
<path d="M363.077 148.907H327.841C327.698 148.903 327.562 148.844 327.461 148.743C327.36 148.641 327.301 148.505 327.297 148.362V140.868C327.301 140.725 327.359 140.588 327.461 140.487C327.562 140.385 327.698 140.326 327.841 140.322H363.113C363.256 140.326 363.392 140.385 363.494 140.487C363.595 140.588 363.653 140.725 363.657 140.868V148.362C363.621 148.653 363.404 148.907 363.077 148.907ZM328.387 147.816H362.568V141.413H328.387V147.816Z" fill="white"/>
<path d="M104.771 28.5731C102.281 28.5715 99.8364 27.9058 97.6883 26.6446C94.4198 24.7471 92.0346 21.6305 91.0545 17.9764C90.0743 14.3224 90.579 10.4284 92.4581 7.14602C94.3459 3.83658 97.4345 1.47181 101.103 0.489247C104.771 -0.493321 108.622 0.0162946 111.927 1.9081C115.232 3.79991 117.594 6.89182 118.574 10.5655C119.554 14.2241 119.045 18.1227 117.157 21.4055C115.268 24.7149 112.181 27.0809 108.513 28.0622C107.296 28.4076 106.036 28.5792 104.771 28.5719V28.5731ZM104.808 1.14429C103.656 1.14595 102.509 1.29253 101.393 1.58058C98.0154 2.48982 95.1452 4.67249 93.4014 7.72896C89.7685 14.0228 91.948 22.0984 98.2326 25.7354C99.7298 26.601 101.383 27.1623 103.097 27.3871C104.811 27.6119 106.553 27.4958 108.222 27.0455C111.6 26.1362 114.47 23.9535 116.214 20.8971C117.078 19.3977 117.639 17.7422 117.863 16.0255C118.088 14.3089 117.972 12.5647 117.522 10.893C116.614 7.51021 114.435 4.63583 111.383 2.88945C109.381 1.74265 107.114 1.14097 104.808 1.14429ZM105.68 20.8983C105.613 20.9021 105.545 20.891 105.482 20.8659C105.419 20.8408 105.363 20.8022 105.317 20.7529L99.7592 15.5504C99.658 15.4512 99.5981 15.3173 99.5913 15.1757C99.5845 15.034 99.6314 14.895 99.7226 14.7866C99.8217 14.6853 99.9553 14.6252 100.097 14.6184C100.238 14.6116 100.377 14.6586 100.485 14.7499L106.079 19.9524C106.18 20.0516 106.24 20.1855 106.247 20.3271C106.254 20.4688 106.207 20.6077 106.116 20.7162C106.06 20.7758 105.993 20.8228 105.918 20.8542C105.842 20.8856 105.762 20.9006 105.68 20.8983ZM110.585 19.2595C110.331 19.2595 110.112 19.0774 110.039 18.8232L108.841 12.0564C108.804 11.7656 108.986 11.4747 109.276 11.438C109.346 11.4229 109.418 11.4224 109.487 11.4365C109.557 11.4506 109.623 11.4791 109.681 11.5201C109.739 11.5612 109.788 11.6138 109.825 11.6748C109.861 11.7358 109.885 11.8037 109.894 11.8743L111.092 18.6411C111.129 18.9319 110.947 19.2228 110.657 19.2595H110.583H110.585ZM98.8159 12.4621C98.5255 12.4621 98.2704 12.2434 98.2704 11.9525C98.2704 11.8438 98.1984 9.04272 99.9411 8.16892C101.139 7.5872 102.266 8.42311 102.956 9.29691C103.647 8.2789 104.954 6.56919 106.299 6.3871C107.861 6.16834 109.169 8.60643 109.423 9.11482C109.568 9.36902 109.46 9.69654 109.169 9.84197C108.915 9.9874 108.588 9.87863 108.443 9.58777C107.971 8.64187 107.026 7.4051 106.445 7.47843C105.464 7.62386 104.084 9.44234 103.43 10.5703C103.321 10.7524 103.139 10.8245 102.958 10.8245C102.865 10.8201 102.775 10.795 102.693 10.751C102.611 10.707 102.54 10.6453 102.485 10.5703C102.485 10.5337 101.359 8.67853 100.379 9.15148C99.2528 9.69654 99.326 11.8792 99.326 11.9159C99.3626 12.1701 99.1442 12.4255 98.8171 12.4609L98.8159 12.4621Z" fill="white" fill-opacity="0.55"/>
<path d="M104.081 32.3563C103.791 32.3563 103.536 32.3196 103.355 32.2475C101.503 31.4104 101.648 28.1364 101.648 27.7367C101.648 27.5913 101.72 27.4459 101.867 27.3371C101.975 27.2283 102.12 27.1917 102.302 27.2283C102.339 27.2283 107.133 27.92 109.712 26.5366C112.4 25.0457 115.742 22.6809 115.778 22.6809C115.997 22.5355 116.324 22.5721 116.504 22.7542C116.758 23.0451 118.938 25.6641 117.703 27.3383C116.685 28.7205 107.204 32.3587 104.08 32.3587L104.081 32.3563ZM102.773 28.4272C102.81 29.4098 103.027 30.9374 103.826 31.2649C105.061 31.8112 115.85 28.0276 116.83 26.7175C117.339 26.0258 116.54 24.6436 115.994 23.8798C115.013 24.5715 112.435 26.3167 110.255 27.518C107.894 28.7914 104.225 28.5726 102.772 28.4272H102.773Z" fill="#FFFEFE" fill-opacity="0.55"/>
<path d="M107.569 35.2688H107.315C106.407 35.2321 105.753 34.9779 105.426 34.4683C104.7 33.4136 104.772 32.6132 104.954 32.1402C105.172 31.5585 105.717 31.1222 106.407 30.9034L115.634 28.0303C115.779 27.9936 115.961 27.9936 116.106 28.1024C116.288 28.2112 117.777 29.2304 117.995 30.4672C118.069 30.9768 117.959 31.4497 117.632 31.8493C116.579 33.1228 110.658 35.2688 107.57 35.2688H107.569ZM115.706 29.1571L106.661 31.9948C106.407 32.0681 106.044 32.2135 105.935 32.5411C105.79 32.8686 105.935 33.3415 106.299 33.8866C106.335 33.9587 106.553 34.1408 107.317 34.1774C110.222 34.3229 116.034 32.0314 116.761 31.1576C116.906 30.9755 116.942 30.8301 116.906 30.648C116.834 30.0663 116.143 29.4479 115.707 29.1558L115.706 29.1571Z" fill="white" fill-opacity="0.55"/>
<path d="M112.69 40.5396C112.363 40.5396 112.144 40.4663 111.999 40.3942C111.2 39.8124 109.419 36.1742 108.912 35.0462C108.876 34.9791 108.857 34.9042 108.857 34.8281C108.857 34.752 108.876 34.6771 108.912 34.61C108.984 34.4645 109.093 34.3558 109.239 34.3191L115.995 32.0998C116.141 32.0631 116.286 32.0631 116.394 32.1364C116.54 32.2085 116.613 32.3185 116.648 32.4639L118.501 38.1394C118.573 38.3936 118.464 38.6857 118.21 38.7944C115.16 40.14 113.561 40.5408 112.688 40.5408L112.69 40.5396ZM112.618 39.4849C113.126 39.5937 115.378 38.8299 117.34 37.9939L115.815 33.3011L110.148 35.1562L112.618 39.4849Z" fill="white" fill-opacity="0.55"/>
<defs>
<linearGradient id="paint0_linear_20005153_6357" x1="180.509" y1="114.697" x2="304.847" y2="114.697" gradientUnits="userSpaceOnUse">
<stop stop-color="#6366F1"/>
<stop offset="0.5" stop-color="#8B5CF6"/>
<stop offset="1" stop-color="#D946EF"/>
</linearGradient>
</defs>
</svg>
