<svg width="1076" height="640" viewBox="0 0 1076 640" fill="none" xmlns="http://www.w3.org/2000/svg">
<g clip-path="url(#clip0_20005153_3312)">
<g filter="url(#filter0_f_20005153_3312)">
<path d="M114.429 607.148H962.108C971.254 607.148 993.391 609.546 1011.55 612.503C1029.71 615.459 1035.92 617.857 1025.4 617.857H51.133C40.6211 617.857 46.8225 615.459 64.984 612.503C83.1456 609.546 105.283 607.148 114.429 607.148Z" fill="black" fill-opacity="0.4"/>
</g>
<g filter="url(#filter1_dd_20005153_3312)">
<path d="M102.196 41.1192C102.196 26.7261 102.196 19.5296 104.995 14.0322C107.457 9.19649 111.386 5.26497 116.219 2.80108C121.713 0 128.905 0 143.288 0H932.712C947.095 0 954.287 0 959.781 2.80108C964.613 5.26497 968.542 9.19649 971.005 14.0322C973.804 19.5296 973.804 26.7261 973.804 41.1192V557.465C973.804 571.858 973.804 579.054 971.005 584.552C968.542 589.387 964.613 593.319 959.781 595.783C954.287 598.584 947.095 598.584 932.712 598.584H143.288C128.905 598.584 121.713 598.584 116.219 595.783C111.386 593.319 107.457 589.387 104.995 584.552C102.196 579.054 102.196 571.858 102.196 557.465V41.1192Z" fill="#3A4245"/>
</g>
<path d="M104.336 39.8342C104.336 26.6405 104.336 20.0437 106.902 15.0044C109.159 10.5717 112.761 6.96783 117.19 4.70925C122.226 2.1416 128.819 2.1416 142.004 2.1416H933.995C947.181 2.1416 953.773 2.1416 958.809 4.70925C963.239 6.96783 966.841 10.5717 969.098 15.0044C971.664 20.0437 971.664 26.6405 971.664 39.8342V558.75C971.664 571.943 971.664 578.54 969.098 583.579C966.841 588.012 963.239 591.616 958.809 593.875C953.773 596.442 947.181 596.442 933.995 596.442H142.004C128.819 596.442 122.226 596.442 117.19 593.875C112.761 591.616 109.159 588.012 106.902 583.579C104.336 578.54 104.336 571.943 104.336 558.75V39.8342Z" fill="#262C2D"/>
<path d="M106.477 38.5511C106.477 26.5569 106.477 20.5598 108.81 15.9786C110.862 11.9489 114.136 8.67263 118.163 6.61939C122.741 4.28516 128.734 4.28516 140.721 4.28516H935.281C947.267 4.28516 953.26 4.28516 957.838 6.61939C961.866 8.67263 965.14 11.9489 967.192 15.9786C969.524 20.5598 969.524 26.5569 969.524 38.5511V560.036C969.524 572.031 969.524 578.028 967.192 582.609C965.14 586.639 961.866 589.915 957.838 591.968C953.26 594.302 947.267 594.302 935.281 594.302H140.721C128.734 594.302 122.741 594.302 118.163 591.968C114.136 589.915 110.862 586.639 108.81 582.609C106.477 578.028 106.477 572.031 106.477 560.036V38.5511Z" fill="#121515"/>
<rect x="106.477" y="565.926" width="863.047" height="16.0622" fill="#262C2D"/>
<path fill-rule="evenodd" clip-rule="evenodd" d="M538 24.0933C539.625 24.0933 540.943 22.7749 540.943 21.1485C540.943 19.5222 539.625 18.2038 538 18.2038C536.375 18.2038 535.057 19.5222 535.057 21.1485C535.057 22.7749 536.375 24.0933 538 24.0933Z" fill="#262C2D"/>
<path fill-rule="evenodd" clip-rule="evenodd" d="M538 22.989C539.016 22.989 539.839 22.165 539.839 21.1485C539.839 20.132 539.016 19.308 538 19.308C536.984 19.308 536.161 20.132 536.161 21.1485C536.161 22.165 536.984 22.989 538 22.989Z" fill="#121515"/>
<path opacity="0.4" fill-rule="evenodd" clip-rule="evenodd" d="M538 20.7804C538.203 20.7804 538.368 20.6156 538.368 20.4123C538.368 20.2091 538.203 20.0443 538 20.0443C537.797 20.0443 537.632 20.2091 537.632 20.4123C537.632 20.6156 537.797 20.7804 538 20.7804Z" fill="#636F73"/>
<path d="M0 583.055C0 582.464 0.479106 581.984 1.07011 581.984H536.93C537.521 581.984 538 582.464 538 583.055V598.582H0V583.055Z" fill="url(#paint0_linear_20005153_3312)"/>
<path d="M1075.73 583.055C1075.73 582.464 1075.25 581.984 1074.66 581.984H538.802C538.211 581.984 537.732 582.464 537.732 583.055V598.582H1075.73V583.055Z" fill="url(#paint1_linear_20005153_3312)"/>
<path d="M473.526 593.763H602.474C609.271 593.763 614.781 588.49 614.781 581.984H461.219C461.219 588.49 466.729 593.763 473.526 593.763Z" fill="#4E4F53"/>
<path d="M473.526 593.763H602.474C609.271 593.763 614.781 588.49 614.781 581.984H461.219C461.219 588.49 466.729 593.763 473.526 593.763Z" fill="url(#paint2_linear_20005153_3312)"/>
<path fill-rule="evenodd" clip-rule="evenodd" d="M537.197 598.582H0C0 598.582 23.5425 613.573 100.858 613.573H537.197H538.268H975.142C1052.46 613.573 1076 598.582 1076 598.582H538.268H537.197Z" fill="url(#paint3_linear_20005153_3312)"/>
<path d="M0 583.055C0 582.464 0.479106 581.984 1.07011 581.984H536.93C537.521 581.984 538 582.464 538 583.055V598.582H0V583.055Z" fill="url(#paint4_linear_20005153_3312)"/>
<path d="M1075.73 583.055C1075.73 582.464 1075.25 581.984 1074.66 581.984H538.802C538.211 581.984 537.732 582.464 537.732 583.055V598.582H1075.73V583.055Z" fill="url(#paint5_linear_20005153_3312)"/>
<path d="M473.526 593.763H602.474C609.271 593.763 614.781 588.49 614.781 581.984H461.219C461.219 588.49 466.729 593.763 473.526 593.763Z" fill="#ABAEB0"/>
<path d="M472.99 593.763H601.939C608.736 593.763 614.246 588.49 614.246 581.984H460.684C460.684 588.49 466.194 593.763 472.99 593.763Z" fill="url(#paint6_linear_20005153_3312)"/>
<path fill-rule="evenodd" clip-rule="evenodd" d="M537.197 598.582H0C0 598.582 23.5425 613.573 100.858 613.573H537.197H538.268H975.142C1052.46 613.573 1076 598.582 1076 598.582H538.268H537.197Z" fill="url(#paint7_linear_20005153_3312)"/>
</g>
<defs>
<filter id="filter0_f_20005153_3312" x="31.0156" y="592.148" width="1014.51" height="40.7081" filterUnits="userSpaceOnUse" color-interpolation-filters="sRGB">
<feFlood flood-opacity="0" result="BackgroundImageFix"/>
<feBlend mode="normal" in="SourceGraphic" in2="BackgroundImageFix" result="shape"/>
<feGaussianBlur stdDeviation="7.5" result="effect1_foregroundBlur_20005153_3312"/>
</filter>
<filter id="filter1_dd_20005153_3312" x="98.1958" y="-2" width="879.608" height="606.584" filterUnits="userSpaceOnUse" color-interpolation-filters="sRGB">
<feFlood flood-opacity="0" result="BackgroundImageFix"/>
<feColorMatrix in="SourceAlpha" type="matrix" values="0 0 0 0 0 0 0 0 0 0 0 0 0 0 0 0 0 0 127 0" result="hardAlpha"/>
<feOffset/>
<feGaussianBlur stdDeviation="1"/>
<feColorMatrix type="matrix" values="0 0 0 0 0 0 0 0 0 0.0823529 0 0 0 0 0.25098 0 0 0 0.14 0"/>
<feBlend mode="normal" in2="BackgroundImageFix" result="effect1_dropShadow_20005153_3312"/>
<feColorMatrix in="SourceAlpha" type="matrix" values="0 0 0 0 0 0 0 0 0 0 0 0 0 0 0 0 0 0 127 0" result="hardAlpha"/>
<feOffset dy="2"/>
<feGaussianBlur stdDeviation="2"/>
<feColorMatrix type="matrix" values="0 0 0 0 0 0 0 0 0 0.0823529 0 0 0 0 0.25098 0 0 0 0.05 0"/>
<feBlend mode="normal" in2="effect1_dropShadow_20005153_3312" result="effect2_dropShadow_20005153_3312"/>
<feBlend mode="normal" in="SourceGraphic" in2="effect2_dropShadow_20005153_3312" result="shape"/>
</filter>
<linearGradient id="paint0_linear_20005153_3312" x1="-9.25806e-07" y1="590.55" x2="538" y2="590.55" gradientUnits="userSpaceOnUse">
<stop stop-color="#303135"/>
<stop offset="0.0218797" stop-color="#535458"/>
<stop offset="0.0363004" stop-color="#4D4E52"/>
<stop offset="0.05818" stop-color="#333438"/>
<stop offset="0.0865241" stop-color="#35363A"/>
<stop offset="0.135753" stop-color="#4E4F53"/>
<stop offset="0.756906" stop-color="#818286"/>
<stop offset="1" stop-color="#818286"/>
</linearGradient>
<linearGradient id="paint1_linear_20005153_3312" x1="1075.73" y1="590.55" x2="537.732" y2="590.55" gradientUnits="userSpaceOnUse">
<stop stop-color="#303135"/>
<stop offset="0.0218797" stop-color="#535458"/>
<stop offset="0.0363004" stop-color="#4D4E52"/>
<stop offset="0.05818" stop-color="#333438"/>
<stop offset="0.0865241" stop-color="#35363A"/>
<stop offset="0.135753" stop-color="#4E4F53"/>
<stop offset="0.756906" stop-color="#818286"/>
<stop offset="1" stop-color="#818286"/>
</linearGradient>
<linearGradient id="paint2_linear_20005153_3312" x1="461.219" y1="587.874" x2="614.781" y2="587.874" gradientUnits="userSpaceOnUse">
<stop stop-opacity="0.5"/>
<stop offset="0.139373" stop-color="#818487" stop-opacity="0"/>
<stop offset="0.860627" stop-color="#818487" stop-opacity="0"/>
<stop offset="1" stop-opacity="0.5"/>
</linearGradient>
<linearGradient id="paint3_linear_20005153_3312" x1="538" y1="598.582" x2="538" y2="613.573" gradientUnits="userSpaceOnUse">
<stop stop-color="#303135"/>
<stop offset="1" stop-color="#08090D"/>
</linearGradient>
<linearGradient id="paint4_linear_20005153_3312" x1="-9.25806e-07" y1="590.55" x2="538" y2="590.55" gradientUnits="userSpaceOnUse">
<stop stop-color="#717576"/>
<stop offset="0.016907" stop-color="#9C9FA1"/>
<stop offset="0.0353058" stop-color="#9C9FA1"/>
<stop offset="0.0571855" stop-color="#797E82"/>
<stop offset="0.0979612" stop-color="#797E82"/>
<stop offset="0.151169" stop-color="#B2B5B7"/>
<stop offset="0.756906" stop-color="#CACDCF"/>
<stop offset="1" stop-color="#CACDCF"/>
</linearGradient>
<linearGradient id="paint5_linear_20005153_3312" x1="1075.73" y1="590.55" x2="537.732" y2="590.55" gradientUnits="userSpaceOnUse">
<stop stop-color="#717576"/>
<stop offset="0.016907" stop-color="#9C9FA1"/>
<stop offset="0.0353058" stop-color="#9C9FA1"/>
<stop offset="0.0571855" stop-color="#797E82"/>
<stop offset="0.0979612" stop-color="#797E82"/>
<stop offset="0.151169" stop-color="#B2B5B7"/>
<stop offset="0.756906" stop-color="#CACDCF"/>
<stop offset="1" stop-color="#CACDCF"/>
</linearGradient>
<linearGradient id="paint6_linear_20005153_3312" x1="460.684" y1="587.874" x2="614.246" y2="587.874" gradientUnits="userSpaceOnUse">
<stop stop-opacity="0.5"/>
<stop offset="0.139373" stop-color="#818487" stop-opacity="0"/>
<stop offset="0.860627" stop-color="#818487" stop-opacity="0"/>
<stop offset="1" stop-opacity="0.5"/>
</linearGradient>
<linearGradient id="paint7_linear_20005153_3312" x1="538" y1="598.582" x2="538" y2="613.573" gradientUnits="userSpaceOnUse">
<stop stop-color="#838688"/>
<stop offset="1" stop-color="#17191B"/>
</linearGradient>
<clipPath id="clip0_20005153_3312">
<rect width="1076" height="640" fill="white"/>
</clipPath>
</defs>
</svg>
